<svg xmlns="http://www.w3.org/2000/svg" viewBox="0 0 64 64" fill="none">
  <path d="M32.2 10.5c8.8-1 16.6 2.3 21.6 8.8 5.7 7.2 5.2 18.1-.8 25.4-6.1 7.3-16.3 10.6-25.8 9.3-9-1.2-16.4-5.7-20.2-13.2-3.9-7.8-2.7-17.6 3.2-24 5.4-5.8 13.8-9.3 22-8.3Z" fill="#c4956a"/>
  <path d="M20.5 26.2c3.6-2 7.7-2.6 11.8-1.7" stroke="#8f6747" stroke-width="2" stroke-linecap="round"/>
  <path d="M28.4 38.1c3.8-1 7.6-.4 10.9 1.4" stroke="#8f6747" stroke-width="2" stroke-linecap="round"/>
  <circle cx="24.7" cy="32.5" r="1.7" fill="#8f6747"/>
  <path d="m52 9 1.6 3.6L57.2 14l-3.6 1.4L52 19l-1.4-3.6L47 14l3.6-1.4L52 9Z" fill="#f59e0b"/>
</svg>
