<svg xmlns="http://www.w3.org/2000/svg" width="64" height="64" viewBox="0 0 64 64" fill="none">
  <rect x="5" y="5" width="54" height="54" rx="14" fill="#78350f" fill-opacity="0.05"/>
  <rect x="5.5" y="5.5" width="53" height="53" rx="13.5" stroke="#92400e" stroke-opacity="0.20"/>
  <g transform="translate(14 14)">
    <path d="M17.9 2.8c5-.6 9.4 1.3 12.3 5 3.3 4.1 3 10.3-.5 14.4-3.5 4.1-9.3 6-14.8 5.3-5.1-.7-9.3-3.3-11.5-7.5-2.2-4.5-1.5-10 1.8-13.6 3.1-3.3 7.9-5.3 12.7-4.7Z" fill="#6b4226"/>
    <path d="M11.2 11.6c2-.9 4.4-1.3 6.7-1" stroke="#4b2e1a" stroke-width="2" stroke-linecap="round"/>
    <path d="M15.7 18.3c2.2-.6 4.3-.2 6.2.8" stroke="#4b2e1a" stroke-width="2" stroke-linecap="round"/>
    <circle cx="13.6" cy="15.2" r="1.2" fill="#4b2e1a"/>
    <path d="m29.2 2 1.1 2.4 2.4 1-2.4 1-1.1 2.4-1-2.4-2.4-1 2.4-1 1-2.4Z" fill="#d97706"/>
  </g>
</svg>
